# xmcd
#
# Track frame offsets:
#	150
#	12167
#	30033
#	48445
#	62101
#	75305
#	84601
#	89471
#	99658
#	107492
#	117038
#	122961
#	137247
#	148843
#	159566
#	169801
#	183365
#	199971
#	214594
#	230860
#	241832
#	258154
#	270053
#	283460
#	292735
#	304285
#	317158
#
# Disc length: 4401 seconds
#
# Revision: 1
# Processed by: cddbd v1.5PL3 Copyright (c) Steve Scherf et al.
# Submitted via: audiograbber 1.82.01
#
DISCID=7a112f1b
DTITLE=Johnny Cash - 1990-08-25 - Rocky Gap Festival,Cumberland, MD
DYEAR=1900
DGENRE=
TTITLE0=Johnny Cash - Ring of Fire
TTITLE1=Johnny Cash - Folsom Prison Blues
TTITLE2=Johnny Cash - Sunday Morning Coming Down
TTITLE3=Johnny Cash - Get Rhythm
TTITLE4=Johnny Cash - Restless
TTITLE5=Johnny Cash - Under the Double Eagle
TTITLE6=Johnny Cash - Ride the Train
TTITLE7=Johnny Cash - Five Feet High and Rising
TTITLE8=Johnny Cash - Pickin' Time
TTITLE9=Johnny Cash - Busted
TTITLE10=Johnny Cash - Life's Evening Sun
TTITLE11=Johnny Cash - Hey Porter
TTITLE12=Johnny Cash - Ragged Old Flag
TTITLE13=Johnny Cash - You Win Again
TTITLE14=Johnny Cash - Big River
TTITLE15=Johnny Cash - I Still Miss Someone
TTITLE16=Johnny Cash - Call Me the Breeze
TTITLE17=Johnny Cash - Flat Top Box
TTITLE18=Johnny Cash - Ghost Riders in the Sky
TTITLE19=Johnny Cash - Jackson
TTITLE20=Johnny Cash - If I Was A Carpenter
TTITLE21=Johnny Cash - Jordan
TTITLE22=Johnny Cash - Wreck of Old '97
TTITLE23=Johnny Cash - Gospel Boogie
TTITLE24=Johnny Cash - Angel Band
TTITLE25=Johnny Cash - Fourth Man
TTITLE26=Johnny Cash - I Walk the Line
EXTD=
EXTT0=
EXTT1=
EXTT2=
EXTT3=
EXTT4=
EXTT5=
EXTT6=
EXTT7=
EXTT8=
EXTT9=
EXTT10=
EXTT11=
EXTT12=
EXTT13=
EXTT14=
EXTT15=
EXTT16=
EXTT17=
EXTT18=
EXTT19=
EXTT20=
EXTT21=
EXTT22=
EXTT23=
EXTT24=
EXTT25=
EXTT26=
PLAYORDER=
